<svg xmlns="https://www.w3.org/2000/svg" xmlns:cc="https://creativecommons.org/ns#" xmlns:dc="https://purl.org/dc/elements/1.1/" xmlns:inkscape="https://www.inkscape.org/namespaces/inkscape" xmlns:rdf="https://www.w3.org/1999/02/22-rdf-syntax-ns#" xmlns:sodipodi="https://sodipodi.sourceforge.net/DTD/sodipodi-0.dtd" xmlns:svg="https://www.w3.org/2000/svg" id="svg3004" width="500" height="300" version="1.1" inkscape:version="0.48.1 r9760" sodipodi:docname="r2pow.svg" xml:space="preserve"><sodipodi:namedview id="namedview16" bordercolor="#666666" borderopacity="1" gridtolerance="10" guidetolerance="10" objecttolerance="10" pagecolor="#ffffff" showgrid="false" inkscape:current-layer="svg3004" inkscape:cx="250" inkscape:cy="150" inkscape:pageopacity="0" inkscape:pageshadow="2" inkscape:window-height="480" inkscape:window-maximized="0" inkscape:window-width="640" inkscape:window-x="64" inkscape:window-y="237" inkscape:zoom=".95"/><metadata id="metadata3010"><rdf:RDF><cc:Work><dc:format>image/svg+xml</dc:format><dc:type rdf:resource="https://purl.org/dc/dcmitype/StillImage"/><dc:title/></cc:Work></rdf:RDF></metadata><defs id="defs3008"><clipPath id="clipPath3018"><path id="path3020" d="m 0,841.89 1190.55,0 L 1190.55,0 0,0 0,841.89 z"/></clipPath></defs><rect style="fill:#000;fill-opacity:1;stroke:none" id="rect2988" width="353.445" height="168.307" x="24.803" y="45.768" ry="12.076"/><rect style="fill:#fff;fill-opacity:1;stroke:none" id="rect3788" width="336.614" height="117.815" x="32.776" y="90.059" ry="6.363"/><g id="g4037" transform="matrix(0.84720522,0,0,-0.84720522,-452.419,840.32081)" style="fill:#000"><path inkscape:connector-curvature="0" style="fill:#000;fill-opacity:1;fill-rule:nonzero;stroke:none" id="path3492-8" d="m 717.48563,860.61081 0,-95.251 11.881,0 0,-5.379 -82.928,0 0,5.379 15.912,0 0,51.547 c 0,9.188 0.673,17.258 -2.463,25.998 -0.673,2.241 -7.394,15.015 -10.758,9.413 0.898,-3.363 1.346,-7.172 1.346,-10.536 0,-15.013 -10.311,-24.65 -25.102,-24.65 -15.464,0 -26.221,10.757 -26.221,26.221 0,16.136 14.12,24.875 28.911,24.875 15.909,0 28.683,-8.514 36.085,-22.186 l 0.444,0 0,22.637 c 21.513,-0.673 43.254,-2.69 64.774,-2.69 l 0,-5.378 -11.881,0 z"/><path inkscape:connector-curvature="0" style="fill:#000;fill-opacity:1;fill-rule:nonzero;stroke:none" id="path3496-8" d="m 717.30203,814.96091 109.965,54.98 0,-109.96 -109.965,54.98 z"/><path inkscape:connector-curvature="0" style="fill:#000;fill-opacity:1;fill-rule:nonzero;stroke:none" id="path3500-9" d="m 827.26683,814.96091 109.959,54.98 0,-109.96 -109.959,54.98 z"/></g><text sodipodi:linespacing="125%" style="font-size:40px;font-style:normal;font-variant:normal;font-weight:700;font-stretch:normal;line-height:125%;letter-spacing:0;word-spacing:0;fill:#fff;fill-opacity:1;stroke:none;font-family:BlairMdITC TT;-inkscape-font-specification:BlairMdITC TT Bold" id="text3790" x="29.177" y="81.657" xml:space="preserve"><tspan id="tspan3792" x="29.177" y="81.657">Powered by</tspan></text></svg>